<?xml version="1.0" encoding="utf-8"?>
<!-- Generator: Adobe Illustrator 16.0.3, SVG Export Plug-In . SVG Version: 6.00 Build 0)  -->
<!DOCTYPE svg PUBLIC "-//W3C//DTD SVG 1.1//EN" "http://www.w3.org/Graphics/SVG/1.1/DTD/svg11.dtd">
<svg version="1.1" id="Ebene_1" xmlns="http://www.w3.org/2000/svg" xmlns:xlink="http://www.w3.org/1999/xlink" x="0px" y="0px"
	 width="150px" height="50px" viewBox="0 0 150 50" enable-background="new 0 0 150 50" xml:space="preserve">
<path fill="#E7462B" d="M65.288,29.247h-4.975c-2.271,0-3.526,1.063-3.526,2.852c0,1.739,1.159,2.897,3.623,2.897
	c1.739,0,2.85-0.145,3.961-1.207c0.676-0.629,0.917-1.643,0.917-3.189V29.247z M65.434,39.876v-2.174
	c-1.691,1.689-3.285,2.415-6.183,2.415c-2.851,0-4.928-0.726-6.425-2.222c-1.353-1.401-2.077-3.431-2.077-5.652
	c0-4.009,2.753-7.294,8.598-7.294h5.941v-1.256c0-2.753-1.352-3.961-4.686-3.961c-2.415,0-3.526,0.581-4.83,2.078l-4.009-3.913
	c2.463-2.705,4.878-3.478,9.081-3.478c7.053,0,10.724,2.995,10.724,8.888v16.569H65.434z"/>
<path fill="#E7462B" d="M105.588,39.876V24.66c0-3.43-2.175-4.589-4.154-4.589c-1.934,0-4.202,1.159-4.202,4.444v15.361H90.95V24.66
	c0-3.43-2.173-4.589-4.153-4.589s-4.201,1.159-4.201,4.589v15.216h-6.279V14.709h6.134v2.318c1.643-1.69,3.961-2.608,6.278-2.608
	c2.802,0,5.072,1.014,6.667,3.188c2.125-2.223,4.396-3.188,7.535-3.188c2.511,0,4.782,0.821,6.183,2.222
	c2.029,2.028,2.754,4.396,2.754,7.148v16.086H105.588z"/>
<rect x="116.614" y="14.709" fill="#E7462B" width="6.279" height="25.167"/>
<polygon fill="#E7462B" points="143.407,14.709 138.339,30.255 133.222,14.709 126.608,14.709 135.875,39.861 140.802,39.861 
	150.021,14.711 150.021,14.709 "/>
<path fill="#E7462B" d="M46.613,28.72c0.135-1.021,0.211-2.06,0.211-3.116c0-1.058-0.077-2.095-0.211-3.116l-5.509-0.855
	c-0.247-1.1-0.594-2.177-1.041-3.218l3.95-3.926c-0.49-0.904-1.038-1.79-1.659-2.645c-0.621-0.855-1.294-1.651-2.003-2.396
	l-4.954,2.542c-0.419-0.368-0.855-0.722-1.316-1.056c-0.464-0.336-0.939-0.645-1.422-0.931l0.887-5.498
	c-0.928-0.444-1.892-0.838-2.898-1.165c-1.004-0.327-2.017-0.574-3.027-0.761l-2.517,4.977c-1.125-0.103-2.254-0.099-3.374,0.006
	l-2.521-4.983c-1.012,0.187-2.023,0.435-3.029,0.761c-1.005,0.327-1.97,0.721-2.897,1.164l0.888,5.505
	c-0.962,0.569-1.877,1.233-2.733,1.985l-4.96-2.545c-0.71,0.745-1.382,1.54-2.003,2.396c-0.623,0.855-1.171,1.741-1.661,2.645
	l3.955,3.931c-0.452,1.047-0.801,2.122-1.044,3.212l-5.509,0.856c-0.137,1.02-0.213,2.059-0.213,3.116
	c0,1.057,0.076,2.095,0.213,3.116l5.517,0.856c0.246,1.098,0.591,2.172,1.038,3.211l-3.956,3.931
	c0.49,0.905,1.038,1.791,1.661,2.646c0.621,0.855,1.292,1.651,2.003,2.397l4.954-2.543c0.422,0.371,0.862,0.728,1.326,1.064
	c0.46,0.334,0.932,0.641,1.411,0.926l-0.887,5.495c0.928,0.445,1.893,0.839,2.898,1.166c1.006,0.326,2.017,0.573,3.029,0.76
	l2.514-4.97c1.128,0.105,2.259,0.103,3.382-0.003l2.515,4.973c1.011-0.187,2.024-0.434,3.028-0.76
	c1.007-0.327,1.97-0.721,2.898-1.165l-0.886-5.491c0.966-0.57,1.883-1.236,2.743-1.992l4.948,2.54
	c0.709-0.746,1.381-1.542,2.003-2.397c0.622-0.854,1.169-1.74,1.659-2.646l-3.944-3.921c0.454-1.051,0.803-2.128,1.048-3.225
	L46.613,28.72z M11.481,31.085c-1.906-4.176-1.582-9.233,1.304-13.205c4.26-5.864,12.497-7.168,18.361-2.908
	c0.417,0.303,0.804,0.63,1.174,0.971l-4.002,2.908l-3.888-5.35l-4.288,3.115l3.888,5.351l-0.006,0.005l-12.243,1.193l3.662,5.04
	L11.481,31.085z M34.054,33.334c-4.261,5.864-12.497,7.169-18.361,2.908c-0.38-0.277-0.74-0.571-1.082-0.881l3.948-2.867
	l3.925,5.404l4.921-11.284l3.612,4.971l4.287-3.115l-3.871-5.33l3.975-2.888C37.254,24.404,36.912,29.4,34.054,33.334"/>
</svg>
